<?xml version="1.0" encoding="utf-8"?>
<!-- Generator: Adobe Illustrator 20.0.0, SVG Export Plug-In . SVG Version: 6.00 Build 0)  -->
<svg version="1.1" id="Layer_1" xmlns="http://www.w3.org/2000/svg" xmlns:xlink="http://www.w3.org/1999/xlink" x="0px" y="0px"
	 viewBox="0 0 50 50" style="enable-background:new 0 0 50 50;" xml:space="preserve">
<g>
	<path d="M34.5,22.8c-0.9,0-1.7,0.3-2.2,0.8c-0.5,0.5-0.8,1.2-1,2.2h6.3v0c-0.1-1-0.4-1.7-1-2.2C36.1,23,35.4,22.8,34.5,22.8z"/>
	<path d="M20.8,26.5c-0.5-0.2-1.1-0.3-1.9-0.3h-4.2v5.2h4.1c0.8,0,1.5-0.1,2-0.3c0.9-0.4,1.3-1.2,1.3-2.4
		C22,27.5,21.6,26.8,20.8,26.5z"/>
	<path d="M25,0C11.2,0,0,11.2,0,25s11.2,25,25,25s25-11.2,25-25S38.8,0,25,0z M30.6,16.1h7.8V18h0h-7.8V16.1z M25.3,31.9
		c-0.4,0.6-0.8,1.1-1.4,1.5c-0.6,0.5-1.4,0.8-2.2,1c-0.8,0.2-1.8,0.3-2.7,0.3h-8.8V15.2h9.4c2.4,0,4,0.7,5,2.1
		c0.6,0.8,0.9,1.8,0.9,3c0,1.2-0.3,2.1-0.9,2.9c-0.3,0.4-0.8,0.8-1.5,1.1c1,0.4,1.7,0.9,2.2,1.7c0.5,0.8,0.8,1.7,0.8,2.8
		C26.1,30,25.8,31,25.3,31.9z M41.4,28.1H31.3c0.1,1.4,0.5,2.4,1.5,2.9c0.6,0.4,1.2,0.5,2,0.5c0.8,0,1.5-0.2,2-0.6
		c0.3-0.2,0.5-0.5,0.7-1h3.7c-0.1,0.8-0.5,1.7-1.3,2.5c-1.2,1.4-3,2-5.2,2c-1.9,0-3.5-0.6-4.9-1.7c-1.4-1.1-2.1-3-2.1-5.6
		c0-2.4,0.6-4.3,1.9-5.6c1.3-1.3,2.9-1.9,5-1.9c1.2,0,2.3,0.2,3.3,0.7c1,0.4,1.8,1.1,2.4,2.1c0.6,0.8,0.9,1.8,1.1,2.9
		C41.4,26,41.4,26.9,41.4,28.1z"/>
	<path d="M20.8,22.4c0.5-0.3,0.8-0.9,0.8-1.7c0-0.9-0.3-1.5-1-1.8c-0.6-0.2-1.4-0.3-2.3-0.3h-3.6v4.3h4.1
		C19.6,22.9,20.3,22.8,20.8,22.4z"/>
</g>
</svg>
