<?xml version="1.0" encoding="utf-8"?>
<!-- Generator: Adobe Illustrator 20.0.0, SVG Export Plug-In . SVG Version: 6.00 Build 0)  -->
<svg version="1.1" id="Layer_1" xmlns="http://www.w3.org/2000/svg" xmlns:xlink="http://www.w3.org/1999/xlink" x="0px" y="0px"
	 viewBox="0 0 50 50" style="enable-background:new 0 0 50 50;" xml:space="preserve">
<g>
	<circle cx="25" cy="25" r="5"/>
	<path d="M36.7,16.2c-0.3-0.7-0.6-1.2-1.1-1.7c-0.5-0.5-1-0.8-1.7-1.1c-0.5-0.2-1.3-0.4-2.8-0.5c-1.6-0.1-2.1-0.1-6.1-0.1
		s-4.5,0-6.1,0.1c-1.5,0.1-2.3,0.3-2.8,0.5c-0.7,0.3-1.2,0.6-1.7,1.1c-0.5,0.5-0.8,1-1.1,1.7c-0.2,0.5-0.4,1.3-0.5,2.8
		c-0.1,1.6-0.1,2.1-0.1,6.1s0,4.5,0.1,6.1c0.1,1.5,0.3,2.3,0.5,2.8c0.3,0.7,0.6,1.2,1.1,1.7s1,0.8,1.7,1.1c0.5,0.2,1.3,0.4,2.8,0.5
		c1.6,0.1,2.1,0.1,6.1,0.1s4.5,0,6.1-0.1c1.5-0.1,2.3-0.3,2.8-0.5c0.7-0.3,1.2-0.6,1.7-1.1s0.8-1,1.1-1.7c0.2-0.5,0.4-1.3,0.5-2.8
		c0.1-1.6,0.1-2.1,0.1-6.1s0-4.5-0.1-6.1C37.1,17.5,36.9,16.7,36.7,16.2z M25,32.7c-4.3,0-7.7-3.4-7.7-7.7s3.4-7.7,7.7-7.7
		s7.7,3.4,7.7,7.7S29.3,32.7,25,32.7z M33,18.8c-1,0-1.8-0.8-1.8-1.8c0-1,0.8-1.8,1.8-1.8c1,0,1.8,0.8,1.8,1.8
		C34.8,18,34,18.8,33,18.8z"/>
	<path d="M25,0C11.2,0,0,11.2,0,25s11.2,25,25,25s25-11.2,25-25S38.8,0,25,0z M39.9,31.2c-0.1,1.6-0.3,2.7-0.7,3.6
		c-0.4,1-0.9,1.8-1.7,2.7c-0.8,0.8-1.7,1.3-2.7,1.7c-1,0.4-2,0.6-3.6,0.7C29.6,40,29.1,40,25,40s-4.6,0-6.2-0.1
		c-1.6-0.1-2.7-0.3-3.6-0.7c-1-0.4-1.8-0.9-2.7-1.7c-0.8-0.8-1.3-1.7-1.7-2.7c-0.4-1-0.6-2-0.7-3.6C10,29.6,10,29.1,10,25
		c0-4.1,0-4.6,0.1-6.2c0.1-1.6,0.3-2.7,0.7-3.6c0.4-1,0.9-1.8,1.7-2.7c0.8-0.8,1.7-1.3,2.7-1.7c1-0.4,2-0.6,3.6-0.7
		C20.4,10,20.9,10,25,10s4.6,0,6.2,0.1c1.6,0.1,2.7,0.3,3.6,0.7c1,0.4,1.8,0.9,2.7,1.7c0.8,0.8,1.3,1.7,1.7,2.7c0.4,1,0.6,2,0.7,3.6
		C40,20.4,40,20.9,40,25C40,29.1,40,29.6,39.9,31.2z"/>
</g>
</svg>
