<?xml version="1.0" encoding="utf-8"?>
<!-- Generator: Adobe Illustrator 20.0.0, SVG Export Plug-In . SVG Version: 6.00 Build 0)  -->
<svg version="1.1" id="Layer_1" xmlns="http://www.w3.org/2000/svg" xmlns:xlink="http://www.w3.org/1999/xlink" x="0px" y="0px"
	 viewBox="0 0 50 50" style="enable-background:new 0 0 50 50;" xml:space="preserve">
<g>
	<path d="M26.6,22.7L26.6,22.7C26.6,22.6,26.5,22.6,26.6,22.7L26.6,22.7z"/>
	<path d="M25,0C11.2,0,0,11.2,0,25s11.2,25,25,25s25-11.2,25-25S38.8,0,25,0z M17.9,37.1h-5.6V20.2h5.6V37.1z M15.1,17.9L15.1,17.9
		c-1.9,0-3.1-1.3-3.1-2.9c0-1.7,1.3-2.9,3.2-2.9c1.9,0,3.1,1.3,3.1,2.9C18.2,16.6,17,17.9,15.1,17.9z M38.1,37.1h-5.6v-9
		c0-2.3-0.8-3.8-2.8-3.8c-1.5,0-2.5,1-2.9,2c-0.1,0.4-0.2,0.9-0.2,1.4v9.4H21c0,0,0.1-15.3,0-16.9h5.6v2.4c0.7-1.1,2.1-2.8,5.1-2.8
		c3.7,0,6.5,2.4,6.5,7.6V37.1z"/>
</g>
</svg>
